<svg xmlns="http://www.w3.org/2000/svg" viewBox="0 0 256 256">
  <path fill="#FF694B" d="M245.64 142.857c-10.072 64.615-69.804 108.681-134.419 98.609-64.615-10.072-108.681-69.804-98.609-134.419C22.684 42.432 82.416-1.634 147.031 8.438c64.615 10.072 108.681 69.804 98.609 134.419z"/>
  <path fill="#fff" d="M186.5 128c0 32.309-26.191 58.5-58.5 58.5S69.5 160.309 69.5 128 95.691 69.5 128 69.5s58.5 26.191 58.5 58.5z"/>
  <path fill="#FF694B" d="M128 99c-16.016 0-29 12.984-29 29s12.984 29 29 29 29-12.984 29-29-12.984-29-29-29z"/>
</svg>